HIERARCHY
ROOT mixamorig:Hips
{
	OFFSET 0.00 0.00 0.00
	CHANNELS 6 Xposition Yposition Zposition Zrotation Yrotation Xrotation
	JOINT mixamorig:Spine
	{
		OFFSET	0.0000	10.1816	0.1315
		CHANNELS 3 Zrotation Yrotation Xrotation
		JOINT mixamorig:Spine1
		{
			OFFSET	0.0000	10.0835	-1.0008
			CHANNELS 3 Zrotation Yrotation Xrotation
			JOINT mixamorig:Spine2
			{
				OFFSET	0.0000	9.1000	-1.3734
				CHANNELS 3 Zrotation Yrotation Xrotation
				JOINT mixamorig:Neck
				{
					OFFSET	0.0000	16.6717	-2.5162
					CHANNELS 3 Zrotation Yrotation Xrotation
					JOINT mixamorig:Head
					{
						OFFSET	-0.0000	9.6179	1.6850
						CHANNELS 3 Zrotation Yrotation Xrotation
						JOINT mixamorig:HeadTop_End
						{
							OFFSET	0.0000	17.8152	2.5850
							CHANNELS 3 Zrotation Yrotation Xrotation
							End Site
							{
								OFFSET 0.0000 0.0000 0.0000
							}
						}
						JOINT mixamorig:LeftEye
						{
							OFFSET	3.0675	6.4095	9.2836
							CHANNELS 3 Zrotation Yrotation Xrotation
							End Site
							{
								OFFSET 0.0000 0.0000 0.0000
							}
						}
						JOINT mixamorig:RightEye
						{
							OFFSET	-3.0676	6.4095	9.2835
							CHANNELS 3 Zrotation Yrotation Xrotation
							End Site
							{
								OFFSET 0.0000 0.0000 0.0000
							}
						}
					}
				}
				JOINT mixamorig:LeftShoulder
				{
					OFFSET	4.5705	10.9460	-2.6280
					CHANNELS 3 Zrotation Yrotation Xrotation
					JOINT mixamorig:LeftArm
					{
						OFFSET	10.5893	-0.5824	-2.2321
						CHANNELS 3 Zrotation Yrotation Xrotation
						JOINT mixamorig:LeftForeArm
						{
							OFFSET	27.7308	-0.8050	-2.3459
							CHANNELS 3 Zrotation Yrotation Xrotation
							JOINT mixamorig:LeftHand
							{
								OFFSET	28.2754	-0.7243	1.5819
								CHANNELS 3 Zrotation Yrotation Xrotation
								JOINT mixamorig:LeftHandThumb1
								{
									OFFSET	1.9768	-1.4321	3.1303
									CHANNELS 3 Zrotation Yrotation Xrotation
									JOINT mixamorig:LeftHandThumb2
									{
										OFFSET	2.6262	-2.0520	2.5056
										CHANNELS 3 Zrotation Yrotation Xrotation
										JOINT mixamorig:LeftHandThumb3
										{
											OFFSET	2.6086	-1.6384	1.4960
											CHANNELS 3 Zrotation Yrotation Xrotation
											End Site
											{
												OFFSET 1.6082 -1.1610 1.5598
											}
										}
									}
								}
								JOINT mixamorig:LeftHandIndex1
								{
									OFFSET	8.7164	-1.5021	3.1818
									CHANNELS 3 Zrotation Yrotation Xrotation
									JOINT mixamorig:LeftHandIndex2
									{
										OFFSET	3.5376	-0.8731	0.4888
										CHANNELS 3 Zrotation Yrotation Xrotation
										JOINT mixamorig:LeftHandIndex3
										{
											OFFSET	2.6995	-0.9224	0.4174
											CHANNELS 3 Zrotation Yrotation Xrotation
											End Site
											{
												OFFSET 2.2837 -0.6697 0.2474
											}
										}
									}
								}
								JOINT mixamorig:LeftHandMiddle1
								{
									OFFSET	9.3748	-1.4680	0.9189
									CHANNELS 3 Zrotation Yrotation Xrotation
									JOINT mixamorig:LeftHandMiddle2
									{
										OFFSET	3.6134	-0.7746	0.1449
										CHANNELS 3 Zrotation Yrotation Xrotation
										JOINT mixamorig:LeftHandMiddle3
										{
											OFFSET	2.8303	-0.8314	0.0792
											CHANNELS 3 Zrotation Yrotation Xrotation
											End Site
											{
												OFFSET 2.7849 -0.5114 0.1171
											}
										}
									}
								}
								JOINT mixamorig:LeftHandRing1
								{
									OFFSET	9.0730	-1.7773	-0.9460
									CHANNELS 3 Zrotation Yrotation Xrotation
									JOINT mixamorig:LeftHandRing2
									{
										OFFSET	3.0963	-0.5513	-0.2393
										CHANNELS 3 Zrotation Yrotation Xrotation
										JOINT mixamorig:LeftHandRing3
										{
											OFFSET	2.8588	-0.6503	-0.1853
											CHANNELS 3 Zrotation Yrotation Xrotation
											End Site
											{
												OFFSET 2.5536 -0.6712 -0.1945
											}
										}
									}
								}
								JOINT mixamorig:LeftHandPinky1
								{
									OFFSET	8.1210	-2.3975	-2.8769
									CHANNELS 3 Zrotation Yrotation Xrotation
									JOINT mixamorig:LeftHandPinky2
									{
										OFFSET	3.4503	-0.6398	-0.8039
										CHANNELS 3 Zrotation Yrotation Xrotation
										JOINT mixamorig:LeftHandPinky3
										{
											OFFSET	2.0317	-0.3919	-0.4345
											CHANNELS 3 Zrotation Yrotation Xrotation
											End Site
											{
												OFFSET 1.9042 -0.2980 -0.4342
											}
										}
									}
								}
							}
						}
					}
				}
				JOINT mixamorig:RightShoulder
				{
					OFFSET	-4.5699	10.9462	-2.6281
					CHANNELS 3 Zrotation Yrotation Xrotation
					JOINT mixamorig:RightArm
					{
						OFFSET	-10.5898	-0.5826	-2.2321
						CHANNELS 3 Zrotation Yrotation Xrotation
						JOINT mixamorig:RightForeArm
						{
							OFFSET	-27.7309	-0.8051	-2.3459
							CHANNELS 3 Zrotation Yrotation Xrotation
							JOINT mixamorig:RightHand
							{
								OFFSET	-28.2754	-0.7244	1.5819
								CHANNELS 3 Zrotation Yrotation Xrotation
								JOINT mixamorig:RightHandPinky1
								{
									OFFSET	-8.1207	-2.3941	-2.8773
									CHANNELS 3 Zrotation Yrotation Xrotation
									JOINT mixamorig:RightHandPinky2
									{
										OFFSET	-3.4503	-0.6397	-0.8040
										CHANNELS 3 Zrotation Yrotation Xrotation
										JOINT mixamorig:RightHandPinky3
										{
											OFFSET	-2.0316	-0.3918	-0.4345
											CHANNELS 3 Zrotation Yrotation Xrotation
											End Site
											{
												OFFSET -1.9042 -0.2979 -0.4343
											}
										}
									}
								}
								JOINT mixamorig:RightHandRing1
								{
									OFFSET	-9.0726	-1.7739	-0.9464
									CHANNELS 3 Zrotation Yrotation Xrotation
									JOINT mixamorig:RightHandRing2
									{
										OFFSET	-3.0963	-0.5512	-0.2393
										CHANNELS 3 Zrotation Yrotation Xrotation
										JOINT mixamorig:RightHandRing3
										{
											OFFSET	-2.8588	-0.6502	-0.1853
											CHANNELS 3 Zrotation Yrotation Xrotation
											End Site
											{
												OFFSET -2.5536 -0.6711 -0.1945
											}
										}
									}
								}
								JOINT mixamorig:RightHandMiddle1
								{
									OFFSET	-9.3744	-1.4646	0.9184
									CHANNELS 3 Zrotation Yrotation Xrotation
									JOINT mixamorig:RightHandMiddle2
									{
										OFFSET	-3.6134	-0.7745	0.1449
										CHANNELS 3 Zrotation Yrotation Xrotation
										JOINT mixamorig:RightHandMiddle3
										{
											OFFSET	-2.8303	-0.8313	0.0792
											CHANNELS 3 Zrotation Yrotation Xrotation
											End Site
											{
												OFFSET -2.7849 -0.5114 0.1170
											}
										}
									}
								}
								JOINT mixamorig:RightHandIndex1
								{
									OFFSET	-8.7160	-1.4988	3.1813
									CHANNELS 3 Zrotation Yrotation Xrotation
									JOINT mixamorig:RightHandIndex2
									{
										OFFSET	-3.5377	-0.8729	0.4888
										CHANNELS 3 Zrotation Yrotation Xrotation
										JOINT mixamorig:RightHandIndex3
										{
											OFFSET	-2.6995	-0.9222	0.4173
											CHANNELS 3 Zrotation Yrotation Xrotation
											End Site
											{
												OFFSET -2.2838 -0.6696 0.2474
											}
										}
									}
								}
								JOINT mixamorig:RightHandThumb1
								{
									OFFSET	-1.9765	-1.4291	3.1299
									CHANNELS 3 Zrotation Yrotation Xrotation
									JOINT mixamorig:RightHandThumb2
									{
										OFFSET	-2.6263	-2.0519	2.5056
										CHANNELS 3 Zrotation Yrotation Xrotation
										JOINT mixamorig:RightHandThumb3
										{
											OFFSET	-2.6086	-1.6383	1.4960
											CHANNELS 3 Zrotation Yrotation Xrotation
											End Site
											{
												OFFSET -1.6083 -1.1610 1.5598
											}
										}
									}
								}
							}
						}
					}
				}
			}
		}
	}
	JOINT mixamorig:LeftUpLeg
	{
		OFFSET	8.2078	-6.7517	-1.5996
		CHANNELS 3 Zrotation Yrotation Xrotation
		JOINT mixamorig:LeftLeg
		{
			OFFSET	0.0000	-44.3132	-2.2711
			CHANNELS 3 Zrotation Yrotation Xrotation
			JOINT mixamorig:LeftFoot
			{
				OFFSET	0.0000	-44.1978	-5.4110
				CHANNELS 3 Zrotation Yrotation Xrotation
				JOINT mixamorig:LeftToeBase
				{
					OFFSET	0.0000	-8.7286	10.7105
					CHANNELS 3 Zrotation Yrotation Xrotation
					End Site
					{
						OFFSET 0.0000 -0.0007 9.2781
					}
				}
			}
		}
	}
	JOINT mixamorig:RightUpLeg
	{
		OFFSET	-8.2078	-6.7517	-1.5996
		CHANNELS 3 Zrotation Yrotation Xrotation
		JOINT mixamorig:RightLeg
		{
			OFFSET	-0.0000	-44.3133	-2.2711
			CHANNELS 3 Zrotation Yrotation Xrotation
			JOINT mixamorig:RightFoot
			{
				OFFSET	-0.0000	-44.1978	-5.4110
				CHANNELS 3 Zrotation Yrotation Xrotation
				JOINT mixamorig:RightToeBase
				{
					OFFSET	-0.0000	-8.7286	10.7105
					CHANNELS 3 Zrotation Yrotation Xrotation
					End Site
					{
						OFFSET 0.0000 -0.0007 9.2781
					}
				}
			}
		}
	}
}
MOTION
Frames: 4
Frame Time: 0.0333333
-0.5587 93.7386 3.3509 0.3803 -24.8306 -2.6380 4.8085 17.2859 3.3730 3.6035 2.1937 3.0371 3.6039 2.2724 2.9940 -4.1596 1.3456 2.0740 -7.6728 2.4726 5.2831 0.0000 0.0000 0.0000 0.0000 0.0000 0.0000 0.0000 0.0000 0.0000 -7.9012 -11.0187 5.2496 -54.0567 -37.7970 -13.3624 175.7342 -55.5855 -177.8483 18.8138 4.1553 35.3170 0.6318 14.0271 9.1334 -10.6876 5.7127 3.4546 27.1239 64.5352 38.8352 -77.9432 2.4322 8.1303 -87.4670 3.2594 10.8366 -56.1300 -2.2787 7.2542 -81.1176 -2.4093 7.3542 -89.0719 -2.0836 4.2898 -58.9456 -0.8306 2.2423 -82.5476 -8.7478 6.4547 -90.8781 -6.1128 -2.7434 -52.0842 -3.8534 -2.6913 -86.4166 -15.1783 5.6660 -90.6741 -13.5957 -8.7594 -51.9629 -6.0072 -9.7201 6.3496 19.7463 3.6013 51.5737 47.9766 4.3843 -174.4176 67.9356 -176.3636 -33.0932 -9.9801 7.8102 90.1635 16.6589 5.5466 86.7566 12.0932 -12.9483 55.5049 6.5953 -10.1698 88.2603 8.2037 6.7873 88.4354 5.8263 -2.8765 54.0115 4.0282 -2.4070 87.5613 1.9080 7.7232 85.7184 2.0867 4.0701 60.3631 0.9039 2.9253 84.3416 -3.0187 8.5549 84.1601 -2.9634 10.5373 57.5295 2.1144 7.4227 9.6133 -23.0397 1.0241 3.1899 0.9143 4.2082 -53.9704 -33.4672 67.1135 9.3590 17.8040 -34.6321 -0.2729 -11.0104 25.3375 -15.9950 -1.8217 6.7750 -0.0000 0.0000 -1.0635 -20.6270 -16.0205 4.3382 -0.8190 -4.0414 29.2207 19.7096 2.7414 -22.4256 0.0000 0.0000 -0.5050 
0.2748 94.0867 4.2160 0.5591 -25.2449 -3.0925 4.3498 17.2478 3.9862 3.1445 2.1125 3.4044 3.1539 2.1663 3.3718 -3.7825 1.1844 2.0488 -7.7778 2.1273 5.2090 0.0000 0.0000 0.0000 0.0000 0.0000 0.0000 0.0000 0.0000 0.0000 -7.9976 -11.4804 5.4364 -52.7763 -39.0632 -14.0551 175.6274 -57.1171 -177.7200 17.6415 3.7357 35.3115 0.6318 14.0271 9.1334 -10.6876 5.7127 3.4546 27.1239 64.5352 38.8352 -77.9433 2.4322 8.1303 -87.4670 3.2594 10.8366 -56.1299 -2.2788 7.2542 -81.1176 -2.4093 7.3542 -89.0719 -2.0836 4.2898 -58.9456 -0.8306 2.2423 -82.5476 -8.7478 6.4547 -90.8781 -6.1128 -2.7434 -52.0842 -3.8534 -2.6913 -86.4166 -15.1783 5.6660 -90.6740 -13.5957 -8.7594 -51.9629 -6.0073 -9.7201 5.8695 19.3448 3.3625 53.3302 46.9287 5.3367 -174.5394 67.1902 -176.4954 -33.5387 -8.0220 7.7091 90.1635 16.6589 5.5466 86.7566 12.0932 -12.9483 55.5048 6.5953 -10.1698 88.2603 8.2037 6.7873 88.4354 5.8263 -2.8765 54.0115 4.0282 -2.4070 87.5613 1.9080 7.7232 85.7183 2.0867 4.0702 60.3631 0.9040 2.9253 84.3416 -3.0186 8.5549 84.1601 -2.9634 10.5373 57.5295 2.1144 7.4227 9.6133 -23.0396 1.0241 3.1899 0.9143 4.2082 -53.9704 -33.4672 67.1135 8.9229 17.7997 -33.5376 -0.8818 -10.8901 26.6471 -14.9893 -3.1453 9.4058 -0.0000 -0.0000 -0.5850 -21.9475 -16.0197 8.5087 -1.6284 -3.8962 23.4351 19.6510 2.2026 -19.9372 0.0000 0.0000 -2.4076 
1.2647 94.1854 5.3480 1.5533 -25.6564 -3.9819 3.7564 17.3229 4.3385 2.6043 2.1677 3.6180 2.6189 2.2039 3.5931 -3.4588 1.0418 2.1950 -7.9666 1.8762 5.1399 0.0000 0.0000 0.0000 0.0000 0.0000 0.0000 0.0000 0.0000 0.0000 -8.1454 -11.5392 5.4853 -52.1249 -40.0961 -14.1104 175.4113 -59.8072 -177.4669 16.7032 3.6945 35.1432 0.6318 14.0271 9.1334 -10.6876 5.7127 3.4546 27.1239 64.5352 38.8352 -77.9432 2.4322 8.1303 -87.4670 3.2594 10.8366 -56.1299 -2.2787 7.2542 -81.1176 -2.4093 7.3542 -89.0719 -2.0836 4.2898 -58.9456 -0.8306 2.2424 -82.5476 -8.7478 6.4547 -90.8781 -6.1128 -2.7434 -52.0842 -3.8534 -2.6913 -86.4166 -15.1783 5.6660 -90.6740 -13.5957 -8.7594 -51.9629 -6.0073 -9.7201 5.9942 19.2601 3.3932 54.7482 46.1086 6.2323 -174.6207 66.6629 -176.5837 -33.9651 -6.9600 7.8463 90.1635 16.6589 5.5466 86.7566 12.0932 -12.9482 55.5049 6.5953 -10.1698 88.2602 8.2037 6.7873 88.4354 5.8263 -2.8765 54.0115 4.0282 -2.4070 87.5613 1.9080 7.7232 85.7184 2.0867 4.0702 60.3631 0.9040 2.9253 84.3416 -3.0186 8.5549 84.1601 -2.9634 10.5373 57.5295 2.1144 7.4227 9.6133 -23.0397 1.0241 3.1899 0.9143 4.2082 -53.9704 -33.4672 67.1135 7.9203 17.5450 -33.3988 -2.3644 -10.2497 30.9731 -12.9592 -3.6430 6.8000 0.0000 0.0000 -0.3964 -24.9845 -16.7202 10.2646 -1.8657 -2.0483 22.3619 20.2640 1.3809 -15.1664 0.0000 0.0000 -7.1780 
2.2924 94.5228 6.5194 2.4952 -27.1234 -4.3330 3.1973 17.5753 4.3829 2.1677 2.4073 3.6285 2.1850 2.4347 3.6068 -3.3285 1.0010 2.3656 -8.3310 1.9898 5.0807 0.0000 0.0000 0.0000 0.0000 0.0000 0.0000 0.0000 0.0000 0.0000 -8.3378 -11.2007 5.3958 -52.2046 -40.4017 -13.6927 175.0600 -63.3152 -177.0678 16.5301 3.7569 35.6270 0.6318 14.0271 9.1334 -10.6876 5.7127 3.4546 27.1239 64.5352 38.8352 -77.9433 2.4321 8.1303 -87.4670 3.2594 10.8366 -56.1300 -2.2787 7.2542 -81.1176 -2.4093 7.3542 -89.0719 -2.0836 4.2899 -58.9456 -0.8306 2.2423 -82.5476 -8.7478 6.4547 -90.8781 -6.1128 -2.7434 -52.0842 -3.8534 -2.6913 -86.4166 -15.1783 5.6660 -90.6740 -13.5957 -8.7594 -51.9629 -6.0073 -9.7201 6.6456 19.5093 3.6715 55.3594 45.7488 6.9094 -174.6195 66.6713 -176.5823 -34.1683 -6.5718 8.1543 90.1635 16.6589 5.5466 86.7566 12.0932 -12.9483 55.5048 6.5953 -10.1699 88.2603 8.2037 6.7873 88.4354 5.8263 -2.8765 54.0115 4.0282 -2.4070 87.5613 1.9080 7.7232 85.7184 2.0867 4.0702 60.3631 0.9040 2.9253 84.3416 -3.0186 8.5549 84.1601 -2.9634 10.5373 57.5295 2.1144 7.4226 9.6133 -23.0397 1.0241 3.1899 0.9143 4.2082 -53.9704 -33.4672 67.1135 6.9423 17.1843 -32.8172 -3.2219 -9.7173 34.0701 -11.4309 -3.2389 3.1497 -0.0000 0.0000 -0.2093 -27.4983 -17.3620 9.7146 -2.1979 1.2964 22.7817 20.3182 0.0831 -8.1404 0.0000 -0.0000 -12.7953 
